Simulation
nRows=33
nColumns=15
endheader
time  TH_x TH_y TH_z SC_y  SC_z  SC_x  AC_y  AC_z  AC_x  GH_y  GH_z  GH_yy  EL_x  PS_y
0.0  0.000000  0.000000  0.000000  -30.410529883396094  -0.058973906394919846  16.062967804529265  60.855943927088205  8.726262102266759  0.3388072019279656  52.24465562459399  48.813663377364804  -50.02983833351696  23.871956741778963  0.000000
0.04  0.000000  0.000000  0.000000  -30.32287283608981  0.4693141604635001  16.571549389788252  60.706336136692975  8.568727429994258  1.3839429271339927  50.94288628047313  50.976274185813374  -49.36906660591402  24.388607510321858  0.000000
0.08  0.000000  0.000000  0.000000  -30.2084280658671  0.9632757826917386  16.568037432194433  60.69227617487143  7.900141503643172  1.672039688240349  50.417162430705545  52.12473822822048  -48.8567163872755  24.69041559312051  0.000000
0.12  0.000000  0.000000  0.000000  -30.037815630690126  0.9888809397852333  16.629215981263943  60.55768538681175  7.603873344942005  1.4723514515146472  50.39991480967186  52.385931487625896  -48.39943124784798  24.789580864137218  0.000000
0.16  0.000000  0.000000  0.000000  -29.864842985699866  1.107176599600368  16.7754069841278  60.39857850079178  7.3332273526808445  1.3397780696870083  50.14356562016498  52.406840564362156  -47.45950061550788  24.7322559268518  0.000000
0.2  0.000000  0.000000  0.000000  -29.805769563676332  1.2179231324024458  16.899169312616987  60.3038317902008  7.120302117010957  1.3524816221352962  49.59357869320046  52.51379981864707  -46.13640411671789  24.619135898085066  0.000000
0.24  0.000000  0.000000  0.000000  -29.71838278986728  1.4333246978821563  17.00385162777183  60.17172882415273  7.0206516593452895  1.5006954146517764  48.81497712809518  52.77514441107265  -44.35445957161483  24.529396814164468  0.000000
0.28  0.000000  0.000000  0.000000  -29.6718577042481  1.6925555451417895  17.063450907106958  60.040468475264454  6.959068715900908  1.8495041441994957  47.87611566440091  53.24249989156068  -42.13436797930716  24.495236273553406  0.000000
0.32  0.000000  0.000000  0.000000  -29.627902650836283  2.050768985971711  17.086247401518857  59.916938837423395  6.974554405726784  2.3252149600480174  46.92101513424713  53.89760678872407  -39.65734647544502  24.54935405582081  0.000000
0.36  0.000000  0.000000  0.000000  -29.606262880263735  2.462509279165073  17.09078718943836  59.76617327186342  7.005431043377244  2.9639017295583088  46.05260973539437  54.69505867277032  -36.991767304788155  24.683490936077092  0.000000
0.4  0.000000  0.000000  0.000000  -29.605853038414622  2.942633471753652  17.097701996576816  59.663847481083664  7.044262399968508  3.6983037221653148  45.34674166794516  55.62764932510995  -34.41232269620858  24.86569250981848  0.000000
0.44  0.000000  0.000000  0.000000  -29.6235148511206  3.453343852333067  17.142464416352468  59.54313398329851  7.05916775208309  4.525588843341282  44.91361865335435  56.68105282151874  -31.994483953389636  25.098483552353198  0.000000
0.48  0.000000  0.000000  0.000000  -29.692989699614053  3.9794137527911806  17.212749368215714  59.5243920000704  7.048486323731222  5.431812973708995  44.7190212050105  57.94948055639205  -29.942715094770485  25.293144620812807  0.000000
0.52  0.000000  0.000000  0.000000  -29.879084976389834  4.66247133715572  17.396047730993395  59.46788989176893  6.981283891394699  6.499830973709098  44.858965314988644  59.50627842355025  -28.258960510690827  25.43673633800505  0.000000
0.56  0.000000  0.000000  0.000000  -30.02994490802874  5.644155890576965  17.86453671756248  59.134417120402695  7.050337615286099  7.739028409399062  45.41462775912719  61.049339997899295  -27.033679252035387  25.580863673803783  0.000000
0.6  0.000000  0.000000  0.000000  -30.05948245040715  6.7710085356126175  18.749034069701555  58.87627689219664  7.517353873737925  8.896657747305103  46.31761445831741  62.171434663148624  -26.54867443553075  25.565179137748657  0.000000
0.64  0.000000  0.000000  0.000000  -30.10746749715652  7.717390124529303  19.871909557719736  58.7869262885352  8.158136284279955  9.985917524331054  47.6130420160203  62.86144558886128  -26.477438497929224  25.403844637295762  0.000000
0.68  0.000000  0.000000  0.000000  -30.332458683897382  8.363494541162643  20.854541517229237  58.90905202079424  8.55944480417622  11.233079927832497  49.12706669893836  63.431915527887135  -26.32899901870147  25.141167533002967  0.000000
0.72  0.000000  0.000000  0.000000  -30.705531207784453  8.759240072241491  21.557655284807506  59.238170991116455  8.793033070987633  12.610315072341882  50.77412609054527  63.94613834599491  -26.102878363866356  24.75041420338232  0.000000
0.76  0.000000  0.000000  0.000000  -31.054003297827045  9.011413670236506  22.052796219406382  59.58867103224984  9.137342346242189  13.947011438057336  52.5416412015153  64.31000478667089  -25.88611787681035  24.26958866029813  0.000000
0.8  0.000000  0.000000  0.000000  -31.32544158784381  9.207323111680823  22.400244446320706  59.89546467515033  9.568785916060582  15.192861921097906  54.338795290593026  64.56603175968665  -25.78094832554984  23.750874906636042  0.000000
0.84  0.000000  0.000000  0.000000  -31.510419183788496  9.383462272616509  22.6403903366155  60.122853162350125  10.014491174365904  16.296385288979696  56.09308620933119  64.77667829273125  -25.825735752024187  23.234025986108357  0.000000
0.88  0.000000  0.000000  0.000000  -31.579940241761797  9.561128476053353  22.754767145534057  60.23804476745812  10.44460066451565  17.224817559477074  57.72383729011336  64.99124811682023  -25.975319618672355  22.73560762118394  0.000000
0.92  0.000000  0.000000  0.000000  -31.571435131290862  9.728895381412853  22.79573306533889  60.25729101015264  10.812228059102512  17.930978066580643  59.20453485145196  65.22172351975325  -26.151474370001274  22.2448789625932  0.000000
0.96  0.000000  0.000000  0.000000  -31.513197566741482  9.868493703446191  22.819906879155393  60.22562537571499  11.070412104599443  18.399843845367595  60.49060189217046  65.46247020769277  -26.257704104599767  21.741714252960755  0.000000
1.0  0.000000  0.000000  0.000000  -31.431310883362613  9.96303373311843  22.846253110220747  60.16719925627704  11.224835439038745  18.648346576522588  61.54093788638882  65.69099227092265  -26.2492212350576  21.2076090494547  0.000000
1.04  0.000000  0.000000  0.000000  -31.336673061123975  10.010054154435517  22.863298905324513  60.09978876415858  11.285497896627838  18.704625702300202  62.29294676107906  65.88767277539976  -26.12333336989484  20.675460726578354  0.000000
1.08  0.000000  0.000000  0.000000  -31.240859272299726  10.009595478209874  22.86201747666767  60.030979470262935  11.267423581527733  18.598377547880563  62.70951845111085  66.01537235694848  -25.9408472023878  20.205957459053963  0.000000
1.12  0.000000  0.000000  0.000000  -31.14203649209536  9.963109967805387  22.8201758904729  59.970064467450996  11.17546967475989  18.363306928516412  62.770403522187834  66.04591667782428  -25.77970669503907  19.853584247835155  0.000000
1.16  0.000000  0.000000  0.000000  -31.05123932040026  9.877288796844429  22.732482395668928  59.916191827739574  11.025543638107381  18.02465837610432  62.49790240181671  65.95074733133865  -25.72261220190937  19.640015749219526  0.000000
1.2  0.000000  0.000000  0.000000  -30.962096877693757  9.762281120389476  22.59255354570641  59.865460461188974  10.826867313858008  17.597978421906127  61.92715998362253  65.72165251926914  -25.827011026042722  19.550272630277078  0.000000
1.24  0.000000  0.000000  0.000000  -30.873543145642827  9.626514363478693  22.405990470097993  59.80397538238072  10.583515503302056  17.086534189502718  61.11571245906971  65.36027707955189  -26.162687296940188  19.55327088677088  0.000000
1.28  0.000000  0.000000  0.000000  -30.78875272390325  9.474998798770741  22.178111210553787  59.72672508703414  10.297486237518354  16.469075076969364  60.11474307810792  64.89790921107256  -26.780848200496923  19.630349995334377  0.000000
